<?xml version="1.0" standalone="no"?>
<!DOCTYPE svg PUBLIC "-//W3C//DTD SVG 20010904//EN"
 "http://www.w3.org/TR/2001/REC-SVG-20010904/DTD/svg10.dtd">
<svg version="1.0" xmlns="http://www.w3.org/2000/svg"
 width="1200.000000pt" height="600.000000pt" viewBox="0 0 1200.000000 600.000000"
 preserveAspectRatio="xMidYMid meet">

<g transform="translate(0.000000,600.000000) scale(0.100000,-0.100000)"
fill="#000000" stroke="none">
<path d="M3595 5303 c-22 -2 -80 -11 -130 -19 -113 -20 -202 -28 -545 -48
-151 -8 -338 -21 -415 -27 -77 -7 -248 -16 -380 -20 -132 -4 -262 -12 -290
-17 -27 -6 -76 -11 -108 -11 -32 -1 -67 -5 -77 -11 -10 -5 -44 -12 -76 -16
-64 -6 -284 -72 -284 -85 0 -4 -14 -10 -30 -14 -17 -4 -30 -11 -30 -16 0 -5
-6 -9 -13 -9 -20 0 -113 -71 -133 -102 -28 -41 -100 -68 -183 -68 -38 0 -73
-4 -76 -10 -3 -5 -14 -10 -23 -10 -40 0 -182 -99 -182 -126 0 -7 -29 -41 -65
-77 l-65 -65 0 -170 c0 -103 -6 -201 -14 -248 -15 -84 -30 -443 -27 -634 1
-63 9 -146 18 -185 16 -72 15 -132 -7 -360 -7 -75 -5 -142 6 -265 17 -188 43
-305 87 -385 37 -67 66 -132 67 -147 0 -9 4 -19 9 -22 5 -3 15 -30 21 -58 7
-29 16 -57 20 -63 10 -13 46 -118 60 -175 16 -63 55 -142 85 -170 14 -13 25
-29 25 -36 0 -6 6 -17 14 -23 8 -7 17 -29 21 -51 4 -21 15 -46 26 -56 10 -9
19 -21 19 -26 0 -4 18 -27 40 -50 22 -24 40 -46 40 -50 0 -4 27 -35 60 -70 33
-34 60 -66 60 -70 0 -5 42 -50 93 -101 93 -92 139 -123 233 -152 53 -17 56
-17 644 1 202 6 241 2 364 -37 32 -11 71 -19 86 -19 15 0 70 -13 121 -29 247
-76 298 -81 929 -91 283 -4 544 -13 580 -19 124 -20 215 -32 315 -41 55 -5
143 -18 195 -30 174 -38 277 -44 725 -43 412 1 725 11 995 33 69 6 287 15 485
20 614 16 907 28 975 39 127 21 299 30 590 30 247 1 313 4 405 21 85 15 155
20 308 20 203 0 294 11 517 60 47 10 126 24 175 30 50 6 129 20 177 31 70 15
126 19 294 19 154 0 225 4 273 16 69 16 222 86 255 116 11 10 30 18 43 18 13
0 23 4 23 8 0 5 12 15 28 23 15 8 52 39 82 70 49 49 56 62 68 120 7 35 19 77
27 92 8 16 15 35 15 42 0 8 51 65 114 129 l114 115 7 73 c3 40 15 100 25 133
27 86 24 186 -6 249 -26 53 -30 86 -15 114 6 9 17 71 26 137 9 66 24 149 32
185 8 36 18 103 23 150 5 47 16 121 25 165 8 44 22 130 30 190 8 61 19 133 26
160 15 68 25 1179 10 1209 -29 58 -44 109 -56 189 -8 54 -24 109 -40 142 -41
81 -180 205 -230 205 -7 0 -35 11 -62 25 -68 34 -206 47 -628 55 -192 5 -366
11 -385 14 -46 9 -345 54 -410 62 -19 3 -78 11 -130 19 -121 19 -485 45 -756
54 -116 4 -215 11 -222 15 -37 23 -838 35 -1077 16 -74 -6 -470 -10 -925 -10
-685 0 -799 2 -824 15 -25 13 -167 15 -1100 13 -589 -1 -1089 -3 -1111 -5z"/>
</g>
</svg>
